<?xml version="1.0" encoding="UTF-8" standalone="no"?>
<svg width="460px" height="480px" viewBox="0 0 460 480" version="1.1" xmlns="http://www.w3.org/2000/svg" xmlns:xlink="http://www.w3.org/1999/xlink" xmlns:sketch="http://www.bohemiancoding.com/sketch/ns">
    <!-- Generator: Sketch 3.3.2 (12043) - http://www.bohemiancoding.com/sketch -->
    <title>logo</title>
    <desc>Created with Sketch.</desc>
    <defs></defs>
    <g id="Page-1" stroke="none" stroke-width="1" fill="none" fill-rule="evenodd" sketch:type="MSPage">
        <g id="logo" sketch:type="MSLayerGroup" transform="translate(1.000000, 0.000000)">
            <g id="Shape-+-book">
                <path d="M345.470588,109.411765 L345.470588,70.5882353 L310.176471,70.5882353 L310.176471,109.411765 L211.352941,109.411765 L211.352941,56.4705882 L454.882353,56.4705882 L454.882353,21.1764706 L176.058824,21.1764706 L176.058824,480 L211.352941,480 L211.352941,144.705882 L310.176471,144.705882 L310.176471,194.117647 L345.470588,194.117647 L345.470588,144.705882 L458.411765,144.705882 L458.411765,109.411765 L345.470588,109.411765 L345.470588,109.411765 Z M420.411765,211.764706 L298.411765,211.764706 L298.411765,447.411765 L420.411765,447.411765 L420.411765,451.058824 L274.058824,451.058824 L274.058824,447.411765 L286.294118,447.411765 L286.294118,211.764706 L274.058824,211.764706 C262.882353,211.764706 253.705882,219.882353 253.705882,229.882353 L253.705882,461.882353 C253.705882,471.882353 262.764706,480 274.058824,480 L420.411765,480 C431.588235,480 440.764706,471.882353 440.764706,461.882353 L440.764706,229.882353 C440.764706,219.882353 431.705882,211.764706 420.411765,211.764706 L420.411765,211.764706 Z M420.411765,472.705882 L274.058824,472.705882 L274.058824,469.058824 L420.411765,469.058824 L420.411765,472.705882 L420.411765,472.705882 Z M420.411765,461.882353 L274.058824,461.882353 L274.058824,458.235294 L420.411765,458.235294 L420.411765,461.882353 L420.411765,461.882353 Z M10.1764706,300 C10.1764706,300 21.7058824,323.176471 28.8823529,333.529412 L69.8235294,273.411765 L66.6470588,480 L101.941176,480 L101.941176,226.235294 L147.823529,158.823529 L123.117647,137.647059 L10.1764706,300 L10.1764706,300 Z M31.3529412,172.941176 L151.352941,21.1764706 L119.588235,0 L-0.411764706,148.235294 L31.3529412,172.941176 Z" id="Shape" fill="#2AD061" sketch:type="MSShapeGroup"></path>
                <text id="book" fill="#FFFFFF" sketch:type="MSTextLayer" transform="translate(361.128588, 335.195119) rotate(-270.000000) translate(-361.128588, -335.195119) " font-family="Microsoft YaHei" font-size="69.8734177" font-weight="normal">
                    <tspan x="268.775647" y="363.195119" fill="#000000">book</tspan>
                </text>
            </g>
        </g>
    </g>
</svg>